<svg id="Layer_1" data-name="Layer 1" xmlns="http://www.w3.org/2000/svg" xmlns:xlink="http://www.w3.org/1999/xlink" viewBox="0 0 127.55 45.37"><defs><style>.cls-1{fill:url(#linear-gradient);}.cls-2{fill:url(#linear-gradient-2);}.cls-3{fill:url(#linear-gradient-3);}.cls-4{fill:url(#linear-gradient-4);}.cls-5{fill:url(#linear-gradient-5);}.cls-6{fill:url(#linear-gradient-6);}.cls-7{fill:url(#linear-gradient-7);}.cls-8{fill:url(#linear-gradient-8);}.cls-9{fill:url(#linear-gradient-9);}.cls-10,.cls-11,.cls-12{fill:none;stroke-miterlimit:10;}.cls-10{stroke:url(#linear-gradient-10);}.cls-11,.cls-12{stroke-width:0.75px;}.cls-11{stroke:url(#linear-gradient-11);}.cls-12{stroke:url(#linear-gradient-12);}</style><linearGradient id="linear-gradient" x1="-80.64" y1="128.41" x2="152.6" y2="-52.92" gradientUnits="userSpaceOnUse"><stop offset="0" stop-color="#aaffa9"/><stop offset="1" stop-color="#11ffbd"/></linearGradient><linearGradient id="linear-gradient-2" x1="-72.55" y1="138.82" x2="160.69" y2="-42.51" xlink:href="#linear-gradient"/><linearGradient id="linear-gradient-3" x1="-67.99" y1="144.69" x2="165.25" y2="-36.64" xlink:href="#linear-gradient"/><linearGradient id="linear-gradient-4" x1="-63.71" y1="150.19" x2="169.53" y2="-31.13" xlink:href="#linear-gradient"/><linearGradient id="linear-gradient-5" x1="-57.96" y1="157.58" x2="175.28" y2="-23.74" xlink:href="#linear-gradient"/><linearGradient id="linear-gradient-6" x1="-53.32" y1="163.55" x2="179.92" y2="-17.78" xlink:href="#linear-gradient"/><linearGradient id="linear-gradient-7" x1="-46.48" y1="172.36" x2="186.77" y2="-8.97" xlink:href="#linear-gradient"/><linearGradient id="linear-gradient-8" x1="-41.34" y1="178.97" x2="191.91" y2="-2.36" xlink:href="#linear-gradient"/><linearGradient id="linear-gradient-9" x1="-36.73" y1="184.89" x2="196.51" y2="3.57" xlink:href="#linear-gradient"/><linearGradient id="linear-gradient-10" x1="2.42" y1="74.47" x2="127.97" y2="74.47" xlink:href="#linear-gradient"/><linearGradient id="linear-gradient-11" x1="38.71" y1="52.86" x2="48.79" y2="45.02" xlink:href="#linear-gradient"/><linearGradient id="linear-gradient-12" x1="27.26" y1="52.86" x2="37.34" y2="45.02" xlink:href="#linear-gradient"/></defs><path class="cls-1" d="M4,71.76a5.17,5.17,0,0,1-2.57-.58,1.79,1.79,0,0,1-1-1.62,4.68,4.68,0,0,1,1.71-3c.33-1.2.78-2.62,1.37-4.26S4.77,59,5.57,57.14s1.64-3.64,2.54-5.43a52.82,52.82,0,0,1,2.79-4.9,23.57,23.57,0,0,1,2.79-3.62L14,43a.69.69,0,0,1,.34-.09,1.27,1.27,0,0,1,.63.2c.24.13.36.28.36.43a.78.78,0,0,1-.13.4A43.12,43.12,0,0,0,11,49.73a74.94,74.94,0,0,0-6.8,14.56c.69-1,1.53-2.14,2.52-3.37a42.21,42.21,0,0,1,3-3.38q2.38-2.34,4.09-2.34a2,2,0,0,1,1.76,1,6.06,6.06,0,0,1,.63,3.1c0,.27,0,.54,0,.79s0,.52-.06.79a5,5,0,0,1,.85-.05h.9a.8.8,0,0,1,.54.2.65.65,0,0,1,.23.48q0,.5-.81.63c-.27,0-.65,0-1.13.06s-.81,0-1,.07a12,12,0,0,1-2.5,4.52A14.64,14.64,0,0,1,8.7,70.55a12.18,12.18,0,0,1-2.39.9A9.1,9.1,0,0,1,4,71.76Zm.36-1.26a7.06,7.06,0,0,0,1.53-.18,7.84,7.84,0,0,0,1.66-.58,12.28,12.28,0,0,0,4.1-3.24,16.63,16.63,0,0,0,2.52-4A41.13,41.13,0,0,0,9.26,64a19.23,19.23,0,0,0-4.48,2.32A8.38,8.38,0,0,0,2.89,68a2.32,2.32,0,0,0-.58,1.31,1,1,0,0,0,.58.9A3.14,3.14,0,0,0,4.38,70.5ZM6,64.11Q8.42,63,10.47,62.22a21,21,0,0,1,4-1.08,9.51,9.51,0,0,0,.27-1.24,8.28,8.28,0,0,0,.09-1.23A3.66,3.66,0,0,0,14.57,57a.86.86,0,0,0-.74-.5,2.59,2.59,0,0,0-1.49.68c-.57.45-1.09.9-1.57,1.35a25.32,25.32,0,0,0-2.46,2.65Z" transform="translate(-0.42 -42.05)"/><path class="cls-2" d="M22.29,70.86A3.65,3.65,0,0,1,19,69.49a5.66,5.66,0,0,1-.92-3.22,9.79,9.79,0,0,1,.68-3.22,17.54,17.54,0,0,1,1.86-3.66,12.29,12.29,0,0,1,2.77-3,5.53,5.53,0,0,1,3.38-1.19,2.62,2.62,0,0,1,1.86.65,2.16,2.16,0,0,1,.7,1.65,6.3,6.3,0,0,1-1.21,3.64A9.7,9.7,0,0,1,25,64a8.11,8.11,0,0,1-4.14,1.13,4.89,4.89,0,0,1-.54,0,5,5,0,0,1-.54-.06,6,6,0,0,0-.14,1.35,4.35,4.35,0,0,0,.56,2.16,2.31,2.31,0,0,0,2.19,1A5.46,5.46,0,0,0,25,68.88a8.89,8.89,0,0,0,2.11-1.53q.86-.85,1.44-1.53c.39-.45.8-1,1.22-1.55s.94-1.36,1.57-2.32a.58.58,0,0,1,.54-.31c.42,0,.63.22.63.67a.64.64,0,0,1-.09.36,33.45,33.45,0,0,1-2.7,3.94,13.8,13.8,0,0,1-3.31,3.06A7.36,7.36,0,0,1,22.29,70.86Zm-1.13-7.11a6.12,6.12,0,0,0,3.22-.92,8.19,8.19,0,0,0,2.47-2.32,4.88,4.88,0,0,0,1-2.83,1.24,1.24,0,0,0-.25-.81,1,1,0,0,0-.83-.32,3.74,3.74,0,0,0-2.25.79,9,9,0,0,0-2,2,17.59,17.59,0,0,0-1.48,2.36,13.74,13.74,0,0,0-.88,2l.47.07A4.43,4.43,0,0,0,21.16,63.75Z" transform="translate(-0.42 -42.05)"/><path class="cls-3" d="M34.39,70.86a3.62,3.62,0,0,1-3.26-1.37,5.59,5.59,0,0,1-.92-3.22,9.74,9.74,0,0,1,.67-3.22,17.12,17.12,0,0,1,1.87-3.66,12.1,12.1,0,0,1,2.77-3,5.5,5.5,0,0,1,3.37-1.19,2.66,2.66,0,0,1,1.87.65,2.2,2.2,0,0,1,.7,1.65,6.31,6.31,0,0,1-1.22,3.64A9.7,9.7,0,0,1,37.09,64,8.11,8.11,0,0,1,33,65.15a4.89,4.89,0,0,1-.54,0,5,5,0,0,1-.54-.06,6.06,6.06,0,0,0-.13,1.35,4.25,4.25,0,0,0,.56,2.16,2.28,2.28,0,0,0,2.18,1,5.46,5.46,0,0,0,2.61-.68,9,9,0,0,0,2.12-1.53q.85-.85,1.44-1.53c.39-.45.79-1,1.21-1.55s1-1.36,1.58-2.32a.58.58,0,0,1,.54-.31c.42,0,.63.22.63.67a.64.64,0,0,1-.09.36,33.45,33.45,0,0,1-2.7,3.94,14,14,0,0,1-3.31,3.06A7.41,7.41,0,0,1,34.39,70.86Zm-1.12-7.11a6.06,6.06,0,0,0,3.21-.92A8.23,8.23,0,0,0,39,60.51a5,5,0,0,0,1-2.83,1.3,1.3,0,0,0-.25-.81,1,1,0,0,0-.83-.32,3.74,3.74,0,0,0-2.25.79,8.78,8.78,0,0,0-2,2,17.69,17.69,0,0,0-1.49,2.36,14.72,14.72,0,0,0-.87,2l.47.07A4.35,4.35,0,0,0,33.27,63.75Z" transform="translate(-0.42 -42.05)"/><path class="cls-4" d="M48.43,71A2.11,2.11,0,0,1,47,70.5a2.16,2.16,0,0,1-.61-1.71,5.87,5.87,0,0,1,.36-2,11.93,11.93,0,0,1,.68-1.59,27.25,27.25,0,0,1,1.53-2.68c.54-.83.94-1.42,1.21-1.78a4.48,4.48,0,0,1-1.91-.4,3.13,3.13,0,0,1-1.55-1.17c-.39.57-1,1.49-1.67,2.76a31.7,31.7,0,0,1-2.74,4,.78.78,0,0,1-.63.36c-.45,0-.68-.19-.68-.58a.68.68,0,0,1,.14-.41c.45-.63,1-1.44,1.68-2.45s1.34-2.05,2-3.15a30.21,30.21,0,0,0,1.56-3c.12-.27.24-.55.38-.85l.38-.86a1.89,1.89,0,0,1,.5-.56,1.1,1.1,0,0,1,1.44,0,.86.86,0,0,1,.36.66,2.42,2.42,0,0,1-.3,1c-.19.4-.39.82-.6,1.24a2.56,2.56,0,0,0-.32,1.12c0,.27.23.45.68.54a5.8,5.8,0,0,0,1,.14,3.8,3.8,0,0,0,2-.5A2.78,2.78,0,0,1,53,58.31a.63.63,0,0,1,.47.2.62.62,0,0,1,.2.43.68.68,0,0,1-.27.54,15.13,15.13,0,0,0-1.48,1.66q-.85,1.08-1.71,2.34A24.67,24.67,0,0,0,48.7,66c-.12.3-.29.72-.52,1.26a4.06,4.06,0,0,0-.33,1.53c0,.81.28,1.21.85,1.21a1.71,1.71,0,0,0,.83-.27,6.92,6.92,0,0,0,.93-.63,23.2,23.2,0,0,0,1.91-2c.55-.64,1.12-1.37,1.69-2.18s1.23-1.78,2-2.92a.67.67,0,0,1,.63-.32c.39,0,.58.18.58.54A1.81,1.81,0,0,1,57,63a23.31,23.31,0,0,1-1.64,2.47c-.68.9-1.37,1.75-2.07,2.54a14.79,14.79,0,0,1-1.87,1.83A4.57,4.57,0,0,1,48.43,71Z" transform="translate(-0.42 -42.05)"/><path class="cls-5" d="M47.35,85.76a1.53,1.53,0,0,1-1.24-.47,1.89,1.89,0,0,1-.38-1.2,6.26,6.26,0,0,1,.38-2c.26-.74.56-1.48.9-2.23s.69-1.41,1-2l.72-1.26q1.13-1.94,2.38-3.78t2.66-3.64c.87-1.11,1.75-2.21,2.65-3.31s1.85-2.15,2.84-3.17c.09-.54.14-1.1.18-1.67s0-1.14,0-1.71V58.4a7.88,7.88,0,0,0,0-.86,3.79,3.79,0,0,0-.18-.72c-.09-.24-.18-.46-.28-.67A.55.55,0,0,0,59,56a1.15,1.15,0,0,1,0-.14q0-.27.54-.45a2.92,2.92,0,0,1,.86-.18.81.81,0,0,1,.85.79,7.94,7.94,0,0,1,.14,1.28,14.56,14.56,0,0,1-.12,1.87c-.07.61-.14,1.22-.2,1.82.33-.33.79-.75,1.37-1.28s1.22-1.06,1.89-1.6a13.23,13.23,0,0,1,2-1.35,3.93,3.93,0,0,1,1.82-.54,2.36,2.36,0,0,1,2,.92,5.28,5.28,0,0,1,1,2.1,8.13,8.13,0,0,1,.2,2,12.71,12.71,0,0,1,1.55-.16c.77,0,1.39-.06,1.87-.06a1.17,1.17,0,0,1,.74.15.49.49,0,0,1,0,.7.71.71,0,0,1-.5.23c-.36,0-.8.08-1.33.15l-1.5.23a5.27,5.27,0,0,0-1.08.25,9.28,9.28,0,0,1-1.45,3.12,14.72,14.72,0,0,1-2.65,3A13.89,13.89,0,0,1,63.55,71a9.06,9.06,0,0,1-3.73.83,5.58,5.58,0,0,1-1.17-.13l-.27.67c-.46,1-1.05,2.24-1.78,3.67a35.35,35.35,0,0,1-2.54,4.16c-.27.36-.65.85-1.13,1.46a19.61,19.61,0,0,1-1.64,1.85,11.44,11.44,0,0,1-2,1.57A3.7,3.7,0,0,1,47.35,85.76Zm.41-1.49a2.46,2.46,0,0,0,1.46-.69,18,18,0,0,0,1.71-1.69c.58-.66,1.1-1.29,1.55-1.89s.77-1,1-1.31a36.2,36.2,0,0,0,2.43-4.3,21.79,21.79,0,0,0,1.39-3.57,1.43,1.43,0,0,1-.18-.5,3.37,3.37,0,0,1,.36-2.11,4.88,4.88,0,0,1,1-1.35c.06-.21.11-.44.18-.68a6,6,0,0,0,.13-.72c-.84,1-1.55,1.79-2.14,2.48S55.51,69.3,55,70q-1.39,1.8-2.65,3.65T50,77.43l-.67,1.22q-.45.81-.93,1.77a19.51,19.51,0,0,0-.78,1.85,4.46,4.46,0,0,0-.32,1.42C47.26,84.08,47.43,84.27,47.76,84.27ZM60.18,70.59a7,7,0,0,0,3.53-1,13.9,13.9,0,0,0,3.1-2.45,12.66,12.66,0,0,0,2-2.7c.12-.24.22-.48.32-.72a4.69,4.69,0,0,1,.31-.68,29.86,29.86,0,0,0-5.15,1.78,22.53,22.53,0,0,0-4.52,2.77c-.12.48-.24,1-.34,1.42s-.23.93-.38,1.41A2.7,2.7,0,0,0,60.18,70.59Zm.18-5.08a25.31,25.31,0,0,1,4.5-2.43,29.85,29.85,0,0,1,5-1.53,8.58,8.58,0,0,0,.13-1.49A6.46,6.46,0,0,0,69.83,59a3,3,0,0,0-.45-1.1,1.14,1.14,0,0,0-1-.49,3.5,3.5,0,0,0-1.83.74,23.14,23.14,0,0,0-2.29,1.78c-.8.69-1.53,1.35-2.18,2S60.94,63,60.67,63.3Z" transform="translate(-0.42 -42.05)"/><path class="cls-6" d="M78.31,70.46a2.69,2.69,0,0,1-2.48-1.08,4.83,4.83,0,0,1-.67-2.61,16.33,16.33,0,0,1,.56-3.92,40.6,40.6,0,0,1,1.49-4.59,48.77,48.77,0,0,1,2.09-4.68q1.17-2.3,2.38-4.18A25.42,25.42,0,0,1,84,46.29a8.56,8.56,0,0,1,3.69-2.52A3.61,3.61,0,0,1,89,43.5a2.65,2.65,0,0,1,1.55.45,1.67,1.67,0,0,1,.65,1.49,4.78,4.78,0,0,1-.72,2.27,17.87,17.87,0,0,1-1.8,2.59c-.72.87-1.45,1.68-2.2,2.43s-1.41,1.36-2,1.84q-1.89,1.57-3.65,3A19.59,19.59,0,0,0,78,60.29a27.66,27.66,0,0,0-1,3.39,14,14,0,0,0-.36,2.95A3.9,3.9,0,0,0,77,68.57a1.56,1.56,0,0,0,1.5.76,3.51,3.51,0,0,0,2.07-.7,10.44,10.44,0,0,0,1.92-1.77q.92-1.08,1.68-2.16l1.06-1.51L86.09,62a.63.63,0,0,1,.59-.32.44.44,0,0,1,.49.5,1.81,1.81,0,0,1-.27.81c-.36.6-.82,1.32-1.39,2.16a24.11,24.11,0,0,1-1.94,2.47,10.7,10.7,0,0,1-2.4,2A5.41,5.41,0,0,1,78.31,70.46Zm6.75-23.27A20.59,20.59,0,0,0,83,50q-1.11,1.71-2.19,3.78T78.8,58c1-.87,1.83-1.62,2.61-2.23s1.56-1.27,2.34-2A24.6,24.6,0,0,0,86,51.53a30.92,30.92,0,0,0,2.23-2.76,10.22,10.22,0,0,0,1.44-2.66,3.06,3.06,0,0,0,.13-.76.64.64,0,0,0-.72-.72,1.76,1.76,0,0,0-.38,0,3,3,0,0,0-.43.14,6.71,6.71,0,0,0-1.59.9A10.74,10.74,0,0,0,85.06,47.19Z" transform="translate(-0.42 -42.05)"/><path class="cls-7" d="M86.72,70.59a2.32,2.32,0,0,1-2-.79,3.16,3.16,0,0,1-.57-1.91,7.64,7.64,0,0,1,.36-2.25c.24-.78.51-1.51.79-2.18s.52-1.18.7-1.51a25,25,0,0,1,1.82-2.7A15.37,15.37,0,0,1,90,57a9.7,9.7,0,0,1,2.41-1.6,5.93,5.93,0,0,1,2.5-.56,3.68,3.68,0,0,1,3.06,1.14,3.93,3.93,0,0,1,.9,2.46,3.57,3.57,0,0,1-.14.94,6.58,6.58,0,0,1-.42,1.17c-.17.33-.37.5-.61.5a.79.79,0,0,1-.59-.32.66.66,0,0,1-.18-.63,4.12,4.12,0,0,1,.25-.63,1.92,1.92,0,0,0,.2-.63,3.77,3.77,0,0,0,.07-.4,2.17,2.17,0,0,0,0-.36,1.81,1.81,0,0,0-.78-1.69A3.2,3.2,0,0,0,95,55.88a4.57,4.57,0,0,0-2.14.58,8.81,8.81,0,0,0-1.91,1.35,22.4,22.4,0,0,0-2,2.3,19.82,19.82,0,0,0-1.71,2.65c-.06.15-.22.51-.47,1.08A16.67,16.67,0,0,0,86,65.75a6.37,6.37,0,0,0-.34,2A2,2,0,0,0,86,68.79a1.12,1.12,0,0,0,1,.45,3.21,3.21,0,0,0,1.78-.72,16,16,0,0,0,2.07-1.77c.71-.71,1.34-1.39,1.91-2s1-1.17,1.26-1.53a6.75,6.75,0,0,0,.52-.79,8.32,8.32,0,0,1,.52-.79.65.65,0,0,1,.54-.18,1.61,1.61,0,0,1,.74.2.47.47,0,0,1,.29.57c-.12.21-.33.67-.65,1.37s-.61,1.47-.88,2.29a7.19,7.19,0,0,0-.4,2.19q0,1.17.72,1.35A1.33,1.33,0,0,0,96.47,69a6.76,6.76,0,0,0,1-1l.7-.85c.63-.84,1.22-1.71,1.78-2.59s1.11-1.72,1.68-2.5a.78.78,0,0,1,.63-.36c.42,0,.63.23.63.68a3.49,3.49,0,0,1-.58,1.14c-.39.62-.86,1.32-1.42,2.1s-1.07,1.48-1.55,2.11a18.33,18.33,0,0,1-1.62,1.85,3.12,3.12,0,0,1-2.3.9,2.17,2.17,0,0,1-1.77-.59,2,2,0,0,1-.48-1.3,7.08,7.08,0,0,1,.14-1.33c.09-.46.18-.86.27-1.19l-.18-.14a14.65,14.65,0,0,1-1.22,1.26c-.54.51-1.14,1-1.8,1.55a14.38,14.38,0,0,1-2,1.33A3.68,3.68,0,0,1,86.72,70.59Z" transform="translate(-0.42 -42.05)"/><path class="cls-8" d="M105.31,70.86a4.14,4.14,0,0,1-3.51-1.53A5.42,5.42,0,0,1,100.63,66a7.35,7.35,0,0,1,.36-2.28,10.61,10.61,0,0,1,.94-2.09,19.34,19.34,0,0,1,1.44-2.2,18.66,18.66,0,0,1,2.07-2.34A11.34,11.34,0,0,1,108,55.2a6,6,0,0,1,2.84-.72,2.25,2.25,0,0,1,1.87.77,2.75,2.75,0,0,1,.6,1.75,4.34,4.34,0,0,1-.18,1,11,11,0,0,1-.47,1.4,4.83,4.83,0,0,1-.7,1.23,1.14,1.14,0,0,1-.9.52.73.73,0,0,1-.49-.2.6.6,0,0,1-.23-.43,1.76,1.76,0,0,1,.36-.63,8.59,8.59,0,0,0,.72-1.21,3.38,3.38,0,0,0,.36-1.53,1.73,1.73,0,0,0-.24-.9,1,1,0,0,0-.93-.41,4.32,4.32,0,0,0-2.27.7,10.6,10.6,0,0,0-2.14,1.75,23,23,0,0,0-1.75,2.12,15.6,15.6,0,0,0-1.17,1.82,8,8,0,0,0-.7,1.69,6.71,6.71,0,0,0-.25,1.78,6.24,6.24,0,0,0,.27,1.8,3.09,3.09,0,0,0,1,1.48,2.8,2.8,0,0,0,1.89.59,5.46,5.46,0,0,0,2.61-.68,8.89,8.89,0,0,0,2.11-1.53,19.75,19.75,0,0,0,1.47-1.53c.37-.45.76-1,1.17-1.55s.92-1.36,1.55-2.32a.58.58,0,0,1,.54-.31c.42,0,.63.22.63.67a.64.64,0,0,1-.09.36,46.57,46.57,0,0,1-2.68,3.83,14.19,14.19,0,0,1-3.28,3.12A7.14,7.14,0,0,1,105.31,70.86Z" transform="translate(-0.42 -42.05)"/><path class="cls-9" d="M117.37,70.86a3.62,3.62,0,0,1-3.26-1.37,5.59,5.59,0,0,1-.93-3.22,9.79,9.79,0,0,1,.68-3.22,17.12,17.12,0,0,1,1.87-3.66,12.07,12.07,0,0,1,2.76-3,5.53,5.53,0,0,1,3.38-1.19,2.66,2.66,0,0,1,1.87.65,2.19,2.19,0,0,1,.69,1.65,6.3,6.3,0,0,1-1.21,3.64A9.7,9.7,0,0,1,120.07,64a8.11,8.11,0,0,1-4.14,1.13,4.89,4.89,0,0,1-.54,0,5,5,0,0,1-.54-.06,6,6,0,0,0-.14,1.35,4.25,4.25,0,0,0,.57,2.16,2.28,2.28,0,0,0,2.18,1,5.46,5.46,0,0,0,2.61-.68,8.89,8.89,0,0,0,2.11-1.53q.85-.85,1.44-1.53c.39-.45.8-1,1.22-1.55s.94-1.36,1.57-2.32a.58.58,0,0,1,.54-.31c.42,0,.63.22.63.67a.64.64,0,0,1-.09.36,33.45,33.45,0,0,1-2.7,3.94,14,14,0,0,1-3.3,3.06A7.41,7.41,0,0,1,117.37,70.86Zm-1.13-7.11a6.1,6.1,0,0,0,3.22-.92,8.23,8.23,0,0,0,2.48-2.32,4.94,4.94,0,0,0,1-2.83,1.3,1.3,0,0,0-.24-.81,1,1,0,0,0-.84-.32,3.74,3.74,0,0,0-2.25.79,8.74,8.74,0,0,0-1.95,2,17.69,17.69,0,0,0-1.49,2.36,15,15,0,0,0-.88,2l.48.07A4.18,4.18,0,0,0,116.24,63.75Z" transform="translate(-0.42 -42.05)"/><path class="cls-10" d="M127,61.64a15.24,15.24,0,0,1-.67,9.89c-2.26,4.85-7.46,12.12-26.59,14.23-15.44,1.7-26.84,1.07-39.66.92-8.39-.09-42.36-.09-57.6.24" transform="translate(-0.42 -42.05)"/><path class="cls-11" d="M39.51,53.65c1.8-3.17,4.82,0,8.41-3.77,2-2.1-3.06-6.08-1.21-7.53" transform="translate(-0.42 -42.05)"/><path class="cls-12" d="M28.06,53.65c1.8-3.17,4.82,0,8.41-3.77,2-2.1-3-6.08-1.21-7.53" transform="translate(-0.42 -42.05)"/></svg>